<?xml version="1.0"?>
<svg width="89" height="98" xmlns="http://www.w3.org/2000/svg" xmlns:svg="http://www.w3.org/2000/svg">
 <!-- Created with SVG-edit - https://github.com/SVG-Edit/svgedit-->

 <g class="layer">
  <title>Layer 1</title>
  <style type="text/css">.st0{fill:none;}
	.st1{enable-background:new    ;}
	.st2{fill:#00A9E5;}
	.st3{fill:#353535;}
	.st4{fill:#00BFB3;}
	.st5{fill:#019B8F;}
	.st6{fill:#F9B110;}
	.st7{fill:#FED10A;}</style>
  <g id="svg_5"/>
  <g id="svg_35">
   <g id="svg_25" transform="matrix(0.385827 0 0 0.385827 341.992 179.481)">
    <path class="st2" d="m-712.048807,-374.633489l-65.9,0c0.5,1.5 0.9,3 1.3,4.5c2.1,7.6 3.5,15.4 4.1,23.5c0.2,3.2 0.4,6.5 0.4,9.8s-0.1,6.6 -0.4,9.8c-0.6,8.1 -2,15.9 -4.1,23.5c-0.4,1.5 -0.9,3 -1.3,4.5l65.9,0c20.7,0 37.5,-16.9 37.6,-37.7c0,-20.9 -16.8,-37.9 -37.6,-37.9z" id="svg_26"/>
    <path class="st3" d="m-772.448807,-327.033489c0.2,-3.2 0.4,-6.5 0.4,-9.8s-0.1,-6.6 -0.4,-9.8c-0.6,-8.1 -2,-15.9 -4.1,-23.5c-0.4,-1.5 -0.9,-3 -1.3,-4.5l-101.9,0c-3.7,11.9 -5.8,24.6 -5.8,37.8s2,25.9 5.8,37.8l101.8,0c0.5,-1.5 0.9,-3 1.3,-4.5c2.2,-7.6 3.6,-15.4 4.2,-23.5z" id="svg_27"/>
   </g>
   <g id="svg_28" transform="matrix(0.385827 0 0 0.385827 341.992 179.481)">
    <path class="st4" d="m-700.548807,-286.433489l-82,0c-2.5,5.6 -5.3,11 -8.5,16.2c-4.8,7.7 -10.4,14.9 -16.8,21.4c-2.1,2.2 -4.3,4.2 -6.5,6.3c-4.5,4 -9.3,7.7 -14.4,11c19.9,13.1 43.7,20.8 69.3,20.8c43.7,0 82.2,-22.3 104.8,-56.1c-11.6,-12.1 -27.9,-19.6 -45.9,-19.6z" id="svg_29"/>
    <path class="st5" d="m-791.148807,-270.333489c3.2,-5.1 6.1,-10.5 8.5,-16.2l-92.3,0c9.8,22.4 26,41.5 46.2,54.8c5.1,-3.3 9.9,-7 14.4,-11c2.3,-2 4.4,-4.1 6.5,-6.3c6.3,-6.4 11.9,-13.5 16.7,-21.3z" id="svg_30"/>
   </g>
   <g id="svg_31" transform="matrix(0.385827 0 0 0.385827 341.992 179.481)">
    <path class="st6" d="m-807.848807,-424.733489c-2.1,-2.2 -4.3,-4.2 -6.5,-6.3c-4.5,-4 -9.3,-7.7 -14.4,-11c-20.3,13.3 -36.4,32.4 -46.2,54.8l92.4,0c-2.5,-5.6 -5.3,-11 -8.5,-16.2c-4.9,-7.7 -10.5,-14.8 -16.8,-21.3z" id="svg_32"/>
    <path class="st7" d="m-759.448807,-462.833489c-25.6,0 -49.4,7.7 -69.3,20.8c5.1,3.3 9.9,7 14.4,11c2.3,2 4.4,4.1 6.5,6.3c6.3,6.5 11.9,13.6 16.8,21.4c3.2,5.1 6.1,10.5 8.5,16.2l82,0c18,0 34.3,-7.5 45.9,-19.5c-22.6,-33.9 -61.1,-56.2 -104.8,-56.2z" id="svg_33"/>
   </g>
  </g>
 </g>
</svg>